<?xml version="1.0" encoding="UTF-8" standalone="no"?>
<!-- Created with Inkscape (http://www.inkscape.org/) -->

<svg
   xmlns:dc="http://purl.org/dc/elements/1.1/"
   xmlns:cc="http://creativecommons.org/ns#"
   xmlns:rdf="http://www.w3.org/1999/02/22-rdf-syntax-ns#"
   xmlns:svg="http://www.w3.org/2000/svg"
   xmlns="http://www.w3.org/2000/svg"
   xmlns:sodipodi="http://sodipodi.sourceforge.net/DTD/sodipodi-0.dtd"
   xmlns:inkscape="http://www.inkscape.org/namespaces/inkscape"
   width="128"
   height="128"
   viewBox="0 0 33.866666 33.866668"
   version="1.1"
   id="svg1907"
   inkscape:version="0.92.4 5da689c313, 2019-01-14"
   sodipodi:docname="logo-pedir-de-boca.svg">
  <defs
     id="defs1901" />
  <sodipodi:namedview
     id="base"
     pagecolor="#ffffff"
     bordercolor="#666666"
     borderopacity="1.0"
     inkscape:pageopacity="0"
     inkscape:pageshadow="2"
     inkscape:zoom="1.8494108"
     inkscape:cx="23.932293"
     inkscape:cy="80.92771"
     inkscape:document-units="px"
     inkscape:current-layer="layer1"
     showgrid="false"
     units="px"
     inkscape:window-width="1366"
     inkscape:window-height="705"
     inkscape:window-x="0"
     inkscape:window-y="30"
     inkscape:window-maximized="1"
     inkscape:pagecheckerboard="false" />
  <metadata
     id="metadata1904">
    <rdf:RDF>
      <cc:Work
         rdf:about="">
        <dc:format>image/svg+xml</dc:format>
        <dc:type
           rdf:resource="http://purl.org/dc/dcmitype/StillImage" />
        <dc:title />
      </cc:Work>
    </rdf:RDF>
  </metadata>
  <g
     inkscape:label="Layer 1"
     inkscape:groupmode="layer"
     id="layer1"
     transform="translate(0,-263.13551)">
    <ellipse
       style="fill:#f0dcd2;fill-opacity:1;stroke:#c8b4aa;stroke-width:0.28619561;stroke-opacity:1"
       id="path1870"
       cx="16.933332"
       cy="280.06876"
       rx="16.790236"
       ry="16.790331" />
    <g
       style="display:inline"
       id="g5940"
       transform="matrix(0.0526856,0,0,0.0526856,30.697222,242.08691)">
      <g
         id="g4945"
         transform="matrix(-2.2974583,-0.64446538,-0.64446538,2.2974583,4.612,-310.15721)">
        <path
           sodipodi:nodetypes="ccscsczccc"
           inkscape:connector-curvature="0"
           id="path4925"
           d="m 16.026183,402.52632 c 1.317755,-5.27102 -2.054382,-13.40372 1.421678,-18.7403 9.651309,-7.76599 12.404068,-10.93554 10.59796,-19.51576 -2.132299,-10.12984 -21.3620907,-11.84675 -31.4061498,-11.50266 -2.3694352,0 -9.2843242,1.01275 -10.7272032,2.45563 -5.519017,5.51902 -15.273362,6.54055 -18.094079,12.7951 -1.755815,5.74103 0.933936,13.14483 4.13579,16.41391 3.201854,3.26908 5.555212,4.13353 8.013092,6.59141 -0.281221,2.98772 -0.38773,5.89257 -0.38773,8.53007 0.396937,9.81636 31.739105,10.16884 36.446642,2.9726 z"
           style="fill:#000000;fill-rule:evenodd;stroke:#000000;stroke-width:1px;stroke-linecap:butt;stroke-linejoin:miter;stroke-opacity:1" />
        <path
           sodipodi:nodetypes="cssscsssc"
           inkscape:connector-curvature="0"
           id="path4929"
           d="m -23.910032,368.40606 c 1.283993,-2.96912 7.079652,-4.57493 11.244178,-7.10839 3.620109,-2.20227 7.9510354,-3.94897 16.9203695,-3.25869 13.2106765,1.01668 13.2018375,2.68622 15.0027525,5.84356 1.561252,2.73717 -0.906325,9.30876 -1.93865,11.37341 7.358408,-5.62685 9.402124,-12.98696 3.748059,-17.57709 -3.183994,-2.58486 -23.2532902,-5.43349 -26.1071701,-4.00655 -5.0246339,2.51231 -6.7718829,2.99805 -11.3734209,6.20368 -4.346107,3.02769 -7.496115,2.36169 -7.496118,8.53007 z"
           style="fill:#ffffff;fill-rule:evenodd;stroke:none;stroke-width:1px;stroke-linecap:butt;stroke-linejoin:miter;stroke-opacity:1" />
        <path
           inkscape:connector-curvature="0"
           id="path4931"
           d="m 3.4895722,380.29645 c 0.9445937,-2.19145 0,-4.44227 0,-6.97914 0,-4.95767 6.4807413,4.54886 0,6.97914 z"
           style="fill:#ffffff;fill-rule:evenodd;stroke:none;stroke-width:1px;stroke-linecap:butt;stroke-linejoin:miter;stroke-opacity:1" />
        <path
           inkscape:connector-curvature="0"
           id="path4933"
           d="m 8.6593088,379.65023 c 0.7676404,-0.86461 4.5076262,-15.78359 5.8159532,-14.47526 5.45853,5.45853 -6.5091056,17.24787 -5.8159532,14.47526 z"
           style="fill:#ffffff;fill-rule:evenodd;stroke:none;stroke-width:1px;stroke-linecap:butt;stroke-linejoin:miter;stroke-opacity:1" />
        <path
           inkscape:connector-curvature="0"
           id="path4935"
           d="m -8.7885522,381.58888 c -2.7776948,-2.43659 -0.8086475,-7.65854 -3.3603288,-10.21022 -1.572115,-1.57212 -1.185599,11.91495 3.3603288,10.21022 z"
           style="fill:#ffffff;fill-rule:evenodd;stroke:none;stroke-width:1px;stroke-linecap:butt;stroke-linejoin:miter;stroke-opacity:1" />
        <path
           inkscape:connector-curvature="0"
           id="path4937"
           d="m -12.148881,383.13981 c 6.4796998,-4.81441 15.3755,-1.68017 23.005328,-1.68017 1.19016,0 6.389589,2.01123 6.332927,2.0679 -0.146488,0.14648 -1.622788,2.22582 -1.680164,2.19713 -8.3991955,-4.19959 -18.0282657,-3.78859 -27.658091,-2.58486 z"
           style="fill:#ffffff;fill-rule:evenodd;stroke:none;stroke-width:1px;stroke-linecap:butt;stroke-linejoin:miter;stroke-opacity:1" />
        <path
           sodipodi:nodetypes="czcczcc"
           inkscape:connector-curvature="0"
           id="path4939"
           d="m -20.032729,399.68296 c 0,0 6.614606,-4.98853 18.0940778,-4.782 11.4794713,0.20653 17.8355912,4.39427 17.8355912,4.39427 l -0.38773,3.23109 c 0,0 -7.7166035,-4.91001 -16.5431573,-4.91125 -8.8265538,-10e-4 -18.0940777,4.52352 -18.0940777,4.52352 z"
           style="fill:#ffffff;fill-rule:evenodd;stroke:none;stroke-width:1px;stroke-linecap:butt;stroke-linejoin:miter;stroke-opacity:1" />
        <path
           sodipodi:nodetypes="ccsc"
           inkscape:connector-curvature="0"
           id="path4943"
           d="m 15.121479,402.91405 c -4.600499,-3.51158 -9.3601814,-3.10184 -14.99223561,-3.10184 -2.82348419,0 -12.36679939,1.72073 -8.14233509,5.94519 4.1832877,4.18329 21.2357537,0.47958 23.1345707,-2.84335 z"
           style="fill:#ffffff;fill-rule:evenodd;stroke:none;stroke-width:1px;stroke-linecap:butt;stroke-linejoin:miter;stroke-opacity:1" />
      </g>
      <text
         xml:space="preserve"
         style="font-style:normal;font-variant:normal;font-weight:normal;font-stretch:normal;line-height:0%;font-family:'Roboto Condensed';-inkscape-font-specification:'Roboto Condensed, ';letter-spacing:0px;word-spacing:0px;fill:#000000;fill-opacity:1;stroke:none;stroke-width:1px;stroke-linecap:butt;stroke-linejoin:miter;stroke-opacity:1"
         x="-283.76773"
         y="674.81488"
         id="text4187"><tspan
           sodipodi:role="line"
           id="tspan4189"
           x="-283.76773"
           y="674.81488"
           style="font-size:96.83773804px;line-height:1.25">A</tspan></text>
      <text
         xml:space="preserve"
         style="font-style:normal;font-variant:normal;font-weight:normal;font-stretch:normal;line-height:0%;font-family:'Roboto Condensed';-inkscape-font-specification:'Roboto Condensed, ';letter-spacing:0px;word-spacing:0px;fill:#000000;fill-opacity:1;stroke:none;stroke-width:1px;stroke-linecap:butt;stroke-linejoin:miter;stroke-opacity:1"
         x="-369.8779"
         y="747.70239"
         id="text4191"><tspan
           sodipodi:role="line"
           id="tspan4193"
           x="-369.8779"
           y="747.70239"
           style="font-size:96.83773804px;line-height:1.25">Pedir</tspan></text>
      <text
         xml:space="preserve"
         style="font-style:normal;font-variant:normal;font-weight:normal;font-stretch:normal;line-height:0%;font-family:'Roboto Condensed';-inkscape-font-specification:'Roboto Condensed, ';letter-spacing:0px;word-spacing:0px;fill:#000000;fill-opacity:1;stroke:none;stroke-width:1px;stroke-linecap:butt;stroke-linejoin:miter;stroke-opacity:1"
         x="-227.87193"
         y="819.1626"
         id="text4195"><tspan
           sodipodi:role="line"
           id="tspan4197"
           x="-227.87193"
           y="819.1626"
           style="font-size:96.83773804px;line-height:1.25">de</tspan></text>
      <text
         xml:space="preserve"
         style="font-style:normal;font-variant:normal;font-weight:normal;font-stretch:normal;line-height:0%;font-family:'Roboto Condensed';-inkscape-font-specification:'Roboto Condensed, ';letter-spacing:0px;word-spacing:0px;fill:#000000;fill-opacity:1;stroke:none;stroke-width:1px;stroke-linecap:butt;stroke-linejoin:miter;stroke-opacity:1"
         x="-200.74434"
         y="890.92651"
         id="text4199"><tspan
           sodipodi:role="line"
           id="tspan4201"
           x="-200.74434"
           y="890.92651"
           style="font-size:96.83773804px;line-height:1.25">boca</tspan></text>
      <g
         id="g4238"
         transform="matrix(1.9116916,0,0,1.9116916,-1334.8014,357.61164)">
        <path
           sodipodi:nodetypes="cccsc"
           inkscape:connector-curvature="0"
           id="path4240"
           d="m 435.6955,259.45712 c 20.65122,-12.90995 51.11832,-29.34589 77.53827,-28.96434 35.19461,1.53649 72.43264,29.82254 72.43264,29.82254 0,0 -20.81236,17.86095 -72.30361,18.23681 -58.78691,0.4291 -77.6673,-19.09501 -77.6673,-19.09501 z"
           style="fill:#000000;fill-rule:evenodd;stroke:#000000;stroke-width:0.83733094px;stroke-linecap:butt;stroke-linejoin:miter;stroke-opacity:1" />
        <path
           sodipodi:nodetypes="cssssssscsc"
           inkscape:connector-curvature="0"
           id="path4242"
           d="m 452.00135,249.37324 c 5.1777,0.44526 10.32124,0.83806 15.43359,1.17926 5.11235,0.3412 11.37754,-0.94793 16.43047,-0.70909 5.05294,0.23883 8.89364,2.0056 13.8931,2.14379 4.99945,0.13818 10.36833,-0.95756 15.32024,-0.9183 4.95192,0.0393 9.48686,1.21349 14.39716,1.15552 4.9103,-0.0579 9.80128,-0.16411 14.6759,-0.31758 4.87462,-0.15347 9.73288,-0.35426 14.57775,-0.60151 4.84487,-0.24727 9.67636,-0.54099 14.49741,-0.88031 0,0 -25.68152,-19.28859 -59.36601,-20.1468 -33.68448,-0.85819 -59.85961,19.09502 -59.85961,19.09502 z"
           style="fill:#ffffff;fill-rule:evenodd;stroke:none;stroke-width:1px;stroke-linecap:butt;stroke-linejoin:miter;stroke-opacity:1" />
        <path
           sodipodi:nodetypes="cscscssc"
           inkscape:connector-curvature="0"
           id="path4244"
           d="m 434.44585,261.08216 c 1.2954,-1.70457 35.67985,-48.44174 52.09816,-50.75715 16.7349,-2.36005 23.81512,6.86563 23.81512,6.86563 0,0 8.37816,-9.32213 18.45134,-8.15293 23.07917,2.67883 54.66872,47.31535 57.13162,50.84228 0,0 -45.04345,-29.53935 -75.74813,-29.53935 -15.35233,0 -34.28936,8.11917 -49.38831,15.38589 -15.09894,7.26671 -26.3598,15.35563 -26.3598,15.35563 z"
           style="fill:#d91a5d;fill-opacity:1;fill-rule:evenodd;stroke:none;stroke-width:1px;stroke-linecap:butt;stroke-linejoin:miter;stroke-opacity:1" />
        <path
           inkscape:connector-curvature="0"
           id="path4246"
           d="m 458.2233,270.3992 c 0,0 31.53899,1.28731 54.28132,-12.87304 22.74241,-14.16035 34.75719,-37.33181 48.70302,-26.38973 13.94575,10.94208 -3.00376,39.90642 -3.00376,39.90642 z"
           style="fill:#ffffff;fill-rule:evenodd;stroke:none;stroke-width:0.83733094px;stroke-linecap:butt;stroke-linejoin:miter;stroke-opacity:1" />
        <path
           style="fill:#d91a5d;fill-opacity:1;fill-rule:evenodd;stroke:none;stroke-width:0.74167752px;stroke-linecap:butt;stroke-linejoin:miter;stroke-opacity:1"
           d="m 468.51979,271.11605 c 0,0 27.93604,0.54494 48.08038,-11.9978 20.14443,-12.54272 30.78674,-33.06716 43.13946,-23.37506 12.35256,9.6921 -2.66062,35.94298 -2.66062,35.94298 z"
           id="path4248"
           inkscape:connector-curvature="0"
           sodipodi:nodetypes="csscc" />
        <path
           sodipodi:nodetypes="cczzzzzcczc"
           inkscape:connector-curvature="0"
           id="path4250"
           d="m 455.21963,270.61375 h 13.73124 c 0,0 9.08547,-0.16205 13.73124,0 4.64578,0.16206 9.53704,0.99612 14.12592,0.98669 4.58888,-0.009 8.7805,-0.97956 13.33657,-0.98669 4.55608,-0.008 9.34395,0.92478 13.92858,0.98669 4.58464,0.0619 9.05357,-0.52723 13.53391,-0.59201 4.48034,-0.0648 13.33656,0.19733 13.33656,0.19733 l 14.12593,-0.59201 c 0,0 -25.69895,8.33679 -54.28141,7.93838 -28.58246,-0.39841 -55.56854,-7.93838 -55.56854,-7.93838 z"
           style="fill:#ffffff;fill-rule:evenodd;stroke:none;stroke-width:1px;stroke-linecap:butt;stroke-linejoin:miter;stroke-opacity:1" />
        <path
           sodipodi:nodetypes="csczc"
           inkscape:connector-curvature="0"
           id="path4252"
           d="m 586.01882,259.99038 c 0.10142,0.14526 -28.67312,43.23508 -74.15786,43.66418 -45.48474,0.42909 -77.43394,-44.22227 -77.43394,-44.22227 0,0 19.65389,16.42346 75.7959,17.58183 56.14201,1.15837 75.7959,-17.02374 75.7959,-17.02374 z"
           style="fill:#d91a5d;fill-opacity:1;fill-rule:evenodd;stroke:none;stroke-width:1px;stroke-linecap:butt;stroke-linejoin:miter;stroke-opacity:1" />
        <path
           sodipodi:nodetypes="sssss"
           inkscape:connector-curvature="0"
           id="path4254"
           d="m 583.92372,271.27759 c 2.3913,4.82956 -39.46123,38.10031 -74.1186,37.76383 -30.6683,-0.29775 -60.75632,-25.99377 -70.33821,-39.45475 -6.49873,-9.12965 28.0406,33.25473 69.77457,32.12745 43.40906,-1.17253 69.70967,-40.47932 74.68224,-30.43653 z"
           style="fill:#550022;fill-opacity:1;stroke:none;stroke-width:0;stroke-miterlimit:4;stroke-dasharray:none" />
        <path
           sodipodi:nodetypes="cczc"
           inkscape:connector-curvature="0"
           id="path4256"
           d="m 434.94558,259.58374 c 14.51569,-19.59896 24.68372,-30.50259 35.07267,-41.84809 0,0 -21.12083,13.08592 -27.89872,23.11609 -6.77788,10.03017 -7.17395,18.732 -7.17395,18.732 z"
           style="fill:#550022;fill-opacity:1;fill-rule:evenodd;stroke:none;stroke-width:1px;stroke-linecap:butt;stroke-linejoin:miter;stroke-opacity:1" />
        <path
           sodipodi:nodetypes="czzccczzc"
           inkscape:connector-curvature="0"
           id="path4258"
           d="m 470.41681,216.93854 c 0,0 13.9235,-12.69459 21.52188,-12.75371 7.59838,-0.0591 11.08245,4.93476 17.9349,4.78264 6.85245,-0.15212 10.36795,-8.3844 21.92043,-4.78264 16.33512,5.99308 47.86221,36.10981 52.60904,53.80469 -19.16638,-28.53729 -37.46401,-39.05821 -37.46401,-39.05821 0,0 -11.53107,-9.35274 -18.73201,-9.96384 -7.20093,-0.61109 -18.23453,9.06492 -18.732,7.57251 -0.49748,-1.49241 -22.84212,-14.68029 -39.05823,0.39856 z"
           style="fill:#550022;fill-opacity:1;fill-rule:evenodd;stroke:none;stroke-width:1px;stroke-linecap:butt;stroke-linejoin:miter;stroke-opacity:1" />
      </g>
    </g>
  </g>
</svg>
